HIERARCHY
ROOT root
{
	OFFSET 0.000000 0.000000 0.000000
	CHANNELS 6 Xposition Yposition Zposition Zrotation Yrotation Xrotation
	JOINT lhip
	{
		OFFSET 0.058581 -0.082280 -0.017664
		CHANNELS 3 Zrotation Yrotation Xrotation
		JOINT lknee
		{
			OFFSET 0.043451 -0.386469 0.008037
			CHANNELS 3 Zrotation Yrotation Xrotation
			JOINT lankle
			{
				OFFSET -0.014790 -0.426874 -0.037428
				CHANNELS 3 Zrotation Yrotation Xrotation
				JOINT ltoe
				{
					OFFSET 0.041054 -0.060286 0.122042
					CHANNELS 3 Zrotation Yrotation Xrotation
					End Site
					{
						OFFSET 0.000000 0.000000 0.000000
					}
				}
			}
		}
	}
	JOINT rhip
	{
		OFFSET -0.060310 -0.090513 -0.013543
		CHANNELS 3 Zrotation Yrotation Xrotation
		JOINT rknee
		{
			OFFSET -0.043257 -0.383688 -0.004843
			CHANNELS 3 Zrotation Yrotation Xrotation
			JOINT rankle
			{
				OFFSET 0.019056 -0.420046 -0.034562
				CHANNELS 3 Zrotation Yrotation Xrotation
				JOINT rtoe
				{
					OFFSET -0.034840 -0.062106 0.130323
					CHANNELS 3 Zrotation Yrotation Xrotation
					End Site
					{
						OFFSET 0.000000 0.000000 0.000000
					}
				}
			}
		}
	}
	JOINT lowerback
	{
		OFFSET 0.004439 0.124404 -0.038385
		CHANNELS 3 Zrotation Yrotation Xrotation
		JOINT upperback
		{
			OFFSET 0.004488 0.137956 0.026820
			CHANNELS 3 Zrotation Yrotation Xrotation
			JOINT chest
			{
				OFFSET -0.002265 0.056032 0.002855
				CHANNELS 3 Zrotation Yrotation Xrotation
				JOINT lowerneck
				{
					OFFSET -0.013390 0.211636 -0.033468
					CHANNELS 3 Zrotation Yrotation Xrotation
					JOINT upperneck
					{
						OFFSET 0.010113 0.088937 0.050410
						CHANNELS 3 Zrotation Yrotation Xrotation
						End Site
						{
							OFFSET 0.000000 0.000000 0.000000
						}
					}
				}
				JOINT lclavicle
				{
					OFFSET 0.071702 0.114000 -0.018898
					CHANNELS 3 Zrotation Yrotation Xrotation
					JOINT lshoulder
					{
						OFFSET 0.122921 0.045205 -0.019046
						CHANNELS 3 Zrotation Yrotation Xrotation
						JOINT lelbow
						{
							OFFSET 0.255332 -0.015649 -0.022946
							CHANNELS 3 Zrotation Yrotation Xrotation
							JOINT lwrist
							{
								OFFSET 0.265709 0.012698 -0.007375
								CHANNELS 3 Zrotation Yrotation Xrotation
								End Site
								{
									OFFSET 0.000000 0.000000 0.000000
								}
							}
						}
					}
				}
				JOINT rclavicle
				{
					OFFSET -0.082954 0.112472 -0.023707
					CHANNELS 3 Zrotation Yrotation Xrotation
					JOINT rshoulder
					{
						OFFSET -0.113228 0.046853 -0.008472
						CHANNELS 3 Zrotation Yrotation Xrotation
						JOINT relbow
						{
							OFFSET -0.260127 -0.014369 -0.031269
							CHANNELS 3 Zrotation Yrotation Xrotation
							JOINT rwrist
							{
								OFFSET -0.269108 0.006794 -0.006027
								CHANNELS 3 Zrotation Yrotation Xrotation
								End Site
								{
									OFFSET 0.000000 0.000000 0.000000
								}
							}
						}
					}
				}
			}
		}
	}
}
MOTION
Frames: 13
Frame Time: 0.033333
0.312788 0.201692 0.988946 78.091033 1.303344 99.089945 7.399490 7.368363 -13.050129 -3.511106 5.830271 11.011274 2.373771 8.647273 -5.654281 0.000000 -0.000000 0.000000 -6.139577 -0.627153 -20.370342 -0.019906 2.054996 11.863649 6.829508 -1.728688 -2.340817 0.000000 -0.000000 0.000000 -2.368138 4.155359 22.794353 4.063687 -0.054973 11.676379 2.742396 4.919264 -4.863825 -0.268064 -7.989240 10.950562 12.241443 -8.152145 -14.880151 -8.184150 -12.536925 -2.769029 -56.381440 -22.446567 32.264884 9.594926 -87.957036 3.320692 18.958142 -0.159858 -30.170017 10.732000 18.568360 2.939263 48.997000 30.947691 13.414485 -59.346783 67.462073 -72.527598 -17.026893 -7.514117 -53.912097 
0.311700 0.203400 0.989511 79.116880 0.887630 99.206480 6.921097 7.186200 -13.073693 -3.595131 5.089512 10.276410 2.098932 8.527336 -5.355866 0.000000 -0.000000 0.000000 -6.562485 -1.206833 -20.326087 0.026074 2.179871 11.804175 6.887656 -2.423837 -2.340569 0.000000 -0.000000 0.000000 -1.570682 4.615564 22.718535 4.042162 0.558201 11.234322 2.768882 5.658936 -4.485987 -0.902913 -10.305715 11.230806 13.074231 -9.454135 -15.237544 -7.834170 -13.266836 -3.468476 -57.231899 -23.274526 33.740920 -20.385088 -87.478490 32.878523 20.096292 0.279665 -30.815968 9.742157 19.098153 2.116692 44.722781 32.017672 10.199426 -50.633740 62.058241 -65.589091 -19.099706 -8.969492 -52.379668 
0.310351 0.204903 0.990035 80.510948 0.319277 99.345404 6.321348 6.909139 -13.126240 -3.714127 4.248358 9.380943 1.819123 8.285108 -4.987909 0.000000 -0.000000 0.000000 -7.124130 -1.846031 -20.309290 -0.011374 1.992518 11.909471 6.865336 -3.131410 -2.380693 0.000000 -0.000000 0.000000 -0.550514 4.733533 22.993468 3.873163 0.971190 11.021937 2.665761 6.311137 -4.421540 -1.321871 -12.440899 11.166368 13.781668 -10.595381 -15.636234 -7.853934 -14.167848 -4.089458 -58.397743 -24.324878 35.299908 -28.397305 -86.396921 40.714262 21.348465 0.719667 -30.830475 8.838733 19.640654 1.527137 41.428448 32.506327 7.806505 -44.665951 57.019458 -61.376753 -19.755362 -10.286792 -52.234790 
0.308856 0.206268 0.990362 82.010839 -0.292734 99.475521 5.720659 6.579940 -13.142055 -3.872482 3.304436 8.398911 1.476842 7.974853 -4.544889 0.000000 -0.000000 0.000000 -7.759089 -2.470483 -20.237285 -0.030572 1.705639 11.991867 6.741001 -3.863760 -2.498344 0.000000 -0.000000 0.000000 0.619204 4.454950 23.522219 3.613029 1.232701 10.878125 2.526978 6.890819 -4.248564 -1.652825 -14.204351 10.733990 14.480997 -11.606442 -16.299185 -8.206037 -14.989660 -4.738943 -59.853673 -25.316178 36.838637 -26.630821 -85.659813 38.381606 22.537506 1.276513 -30.418012 7.934092 20.160570 1.149204 39.049774 32.471452 6.368089 -40.258488 53.684426 -58.421901 -19.482163 -11.648284 -52.738615 
0.307675 0.206213 0.990031 82.947323 -0.889592 99.770743 5.195407 6.501067 -13.095029 -4.109470 2.577287 7.240270 1.243251 7.723416 -4.098765 0.000000 -0.000000 0.000000 -8.260970 -2.864760 -20.508581 -0.144880 1.502674 12.211480 6.585679 -4.396232 -2.745892 0.000000 -0.000000 0.000000 1.413579 4.421438 23.781173 3.400786 1.508756 11.186150 2.409853 7.287436 -4.415301 -1.673814 -15.531996 10.111435 15.042062 -12.367091 -16.788812 -8.667438 -15.840780 -5.140635 -61.249954 -25.962241 38.118777 -22.028886 -85.505311 33.233711 22.376013 1.742820 -30.551275 7.164081 20.842993 1.299303 37.373788 31.720835 5.961263 -38.210019 52.474750 -56.994423 -19.210781 -13.189422 -53.764720 
0.306453 0.205168 0.989700 83.585699 -1.458458 100.065966 4.704305 6.560561 -13.096057 -4.275378 1.844733 6.287026 0.897585 7.613559 -3.724089 0.000000 -0.000000 0.000000 -8.705136 -3.230233 -20.921591 -0.125751 1.653167 12.546467 6.401362 -4.935017 -2.866235 0.000000 -0.000000 0.000000 1.868683 4.501523 24.259538 3.356153 1.715771 11.100462 2.343339 7.586762 -4.169929 -1.479773 -16.715662 9.272925 15.622703 -12.832714 -17.285380 -8.829312 -16.450320 -5.625235 -63.087669 -26.976719 39.226912 -14.901481 -85.429994 25.717760 23.655532 3.844779 -29.599131 6.522161 20.951250 1.374461 36.233092 31.486831 5.577204 -37.971252 52.855491 -57.905928 -27.519501 -19.176701 -48.885209 
0.304584 0.204196 0.990164 84.332326 -1.883358 100.358762 4.237346 6.543143 -13.327839 -4.195758 1.127985 5.603116 0.256383 7.522886 -3.397856 0.000000 -0.000000 0.000000 -9.035132 -3.638979 -21.276666 -0.020520 1.753229 12.689744 6.439811 -5.492730 -2.796138 0.000000 -0.000000 0.000000 2.422622 4.303008 24.995199 3.396948 1.724000 10.664873 2.330524 8.068817 -3.667467 -1.717343 -17.938207 8.701430 16.471156 -13.191292 -17.530500 -8.898448 -17.244048 -6.174137 -65.183224 -29.089975 39.980670 -5.961441 -84.533970 15.804249 25.567012 5.489930 -28.159407 6.220181 20.744501 1.330897 33.578962 31.923108 3.087210 -36.697738 53.406864 -58.384351 -39.520195 -22.839466 -40.147366 
0.302631 0.203409 0.991088 85.119790 -2.116551 100.545908 3.975782 6.380302 -13.396280 -4.028079 0.604696 4.801755 -0.261200 7.250974 -2.877455 0.000000 -0.000000 0.000000 -9.241479 -3.985226 -21.427029 0.087546 1.438093 12.682502 6.496651 -5.768933 -2.689697 0.000000 -0.000000 0.000000 3.360087 3.903132 25.962257 3.331960 1.749639 10.318673 2.398440 8.495697 -3.560902 -2.360650 -19.099910 8.983279 17.096662 -13.420301 -17.690060 -8.995107 -18.817084 -6.792942 -67.020425 -31.800259 40.982054 5.145727 -82.642344 4.215299 25.646714 5.303300 -27.665139 5.356823 21.005869 1.010187 30.168833 31.244445 0.144269 -36.876717 53.191851 -58.866749 -39.437622 -21.902377 -39.291033 
0.300063 0.203068 0.992039 86.277408 -2.377751 100.811230 3.706242 5.959932 -13.641271 -3.805859 0.135375 3.953807 -0.740732 6.893595 -2.201014 0.000000 -0.000000 0.000000 -9.484498 -4.440529 -21.598037 0.173610 0.998260 12.647615 6.531442 -6.144902 -2.606470 0.000000 -0.000000 0.000000 4.814449 3.386257 27.202589 3.045341 1.659759 9.487589 2.433257 8.747865 -3.501476 -3.287050 -20.306777 9.678382 17.795176 -13.425053 -17.793438 -8.516711 -21.235281 -7.571248 -69.149226 -35.285017 42.710409 15.801682 -79.483667 -6.791259 25.545329 5.178290 -28.438729 3.557212 21.585333 0.158436 26.615977 30.000844 -2.966927 -37.503490 51.065326 -59.448611 -32.248866 -19.269688 -43.102939 
0.296369 0.203190 0.992881 87.691300 -2.869599 101.294846 3.250378 5.495351 -14.252713 -3.725782 -0.490624 3.093171 -1.286397 6.507566 -1.372657 0.000000 -0.000000 0.000000 -9.930408 -5.008073 -22.137631 0.215110 0.452575 12.863407 6.439779 -6.702393 -2.562695 0.000000 -0.000000 0.000000 6.416277 2.696446 28.445880 2.550177 1.418480 8.595884 2.370642 8.905020 -3.558645 -4.156614 -21.393986 10.449594 18.521798 -13.282421 -18.063689 -7.587632 -24.201994 -8.609176 -71.399751 -39.345836 44.827680 21.830143 -75.011189 -14.065193 25.164601 4.620605 -29.069364 0.843840 22.458413 -1.065831 23.378498 28.489424 -5.547020 -36.597828 47.020113 -58.746670 -24.612710 -16.463186 -47.484974 
0.292099 0.202927 0.993422 89.002816 -3.509249 101.788261 2.703879 5.239579 -14.862370 -3.758926 -1.199191 2.154950 -1.877139 6.172426 -0.442898 0.000000 -0.000000 0.000000 -10.435173 -5.680931 -22.907525 0.264722 0.093280 13.338618 6.116887 -7.329572 -2.445500 0.000000 -0.000000 0.000000 7.759998 1.967348 29.691628 2.093330 1.263278 8.022648 2.238394 9.108144 -3.724716 -4.943697 -22.397729 11.017352 19.643765 -13.078128 -18.902416 -6.332372 -27.514659 -9.680008 -73.545936 -43.913826 46.961901 24.873640 -69.784692 -18.566950 24.164947 3.969598 -30.115686 -2.284991 23.464303 -2.286782 19.960149 27.026582 -8.390509 -34.312776 41.386390 -56.845077 -18.401642 -14.505559 -50.108616 
0.287874 0.202362 0.993696 90.208428 -3.977026 102.118933 2.376091 5.337974 -15.220367 -3.918497 -2.213499 1.070799 -2.558640 6.050719 0.456683 0.000000 -0.000000 0.000000 -10.769477 -6.110761 -23.603038 0.361189 0.062807 13.928168 5.810382 -8.356885 -2.416311 0.000000 -0.000000 0.000000 9.215444 0.992414 31.487899 1.603524 1.332777 6.918295 2.087459 9.183119 -3.631775 -5.571829 -23.259883 11.477983 20.338347 -12.647045 -19.998449 -4.863257 -30.497556 -10.994769 -75.484560 -48.063205 49.089260 25.746056 -64.744746 -20.845211 24.003580 4.146173 -30.751085 -5.682303 24.284888 -3.739633 17.125912 25.980101 -10.651146 -30.446624 35.134592 -53.847203 -16.848988 -14.406747 -50.907369 
0.283527 0.200941 0.994377 91.049090 -4.444771 102.569568 2.060040 5.492502 -15.638407 -4.087590 -3.185928 0.044534 -3.176404 6.148637 1.311951 0.000000 -0.000000 0.000000 -10.915767 -6.550453 -24.601076 0.368417 0.317187 14.674978 5.542920 -9.389993 -2.488838 0.000000 -0.000000 0.000000 10.309220 0.317309 33.280933 1.113652 1.477095 5.984739 2.086269 9.299201 -3.663887 -6.278002 -24.267450 12.001341 21.178218 -12.068931 -21.295225 -3.272774 -32.589057 -12.114663 -77.632729 -51.816682 51.632441 25.301170 -60.512465 -22.347535 25.675999 5.525840 -30.567123 -8.434448 24.685849 -4.806025 14.633567 25.246358 -12.506444 -27.102239 29.706502 -51.511210 -17.294883 -15.653873 -51.238126 
